{
  "accessors": [
    {
      "bufferView": 2,
      "componentType": 5126,
      "count": 65532,
      "max": [
        3.5265369415283203,
        4.994272232055664,
        13.973095893859863
      ],
      "min": [
        -4.59855318069458,
        -2.7720534801483154,
        0.002190364757552743
      ],
      "type": "VEC3"
    },
    {
      "bufferView": 2,
      "byteOffset": 786384,
      "componentType": 5126,
      "count": 65532,
      "max": [
        0.9998927116394043,
        0.9999892711639404,
        0.9999872446060181
      ],
      "min": [
        -0.9999988079071045,
        -0.99993896484375,
        -1.0
      ],
      "type": "VEC3"
    },
    {
      "bufferView": 1,
      "componentType": 5126,
      "count": 65532,
      "max": [
        0.9932999610900879,
        0.9900587797164917
      ],
      "min": [
        0.006990145891904831,
        0.012706801295280457
      ],
      "type": "VEC2"
    },
    {
      "bufferView": 0,
      "componentType": 5125,
      "count": 355380,
      "type": "SCALAR"
    },
    {
      "bufferView": 2,
      "byteOffset": 1572768,
      "componentType": 5126,
      "count": 42737,
      "max": [
        3.4760518074035645,
        2.683668613433838,
        13.862574577331543
      ],
      "min": [
        -4.346762657165527,
        -2.7707247734069824,
        0.18085095286369324
      ],
      "type": "VEC3"
    },
    {
      "bufferView": 2,
      "byteOffset": 2085612,
      "componentType": 5126,
      "count": 42737,
      "max": [
        0.9999700784683228,
        0.9999892711639404,
        0.9999836683273315
      ],
      "min": [
        -0.9999170303344727,
        -0.9999347925186157,
        -0.9999995231628418
      ],
      "type": "VEC3"
    },
    {
      "bufferView": 1,
      "byteOffset": 524256,
      "componentType": 5126,
      "count": 42737,
      "max": [
        0.9931968450546265,
        0.972562849521637
      ],
      "min": [
        0.04258106276392937,
        0.016429685056209564
      ],
      "type": "VEC2"
    },
    {
      "bufferView": 0,
      "byteOffset": 1421520,
      "componentType": 5125,
      "count": 224364,
      "type": "SCALAR"
    },
    {
      "bufferView": 2,
      "byteOffset": 2598456,
      "componentType": 5126,
      "count": 4979,
      "max": [
        -0.24690501391887665,
        0.575955331325531,
        0.5794157981872559
      ],
      "min": [
        -2.786166191101074,
        -1.9451236724853516,
        -0.5187010765075684
      ],
      "type": "VEC3"
    },
    {
      "bufferView": 2,
      "byteOffset": 2658204,
      "componentType": 5126,
      "count": 4979,
      "max": [
        0.9992724657058716,
        0.9995509386062622,
        0.9993027448654175
      ],
      "min": [
        -0.9992724657058716,
        -0.9995509386062622,
        -0.999309778213501
      ],
      "type": "VEC3"
    },
    {
      "bufferView": 1,
      "byteOffset": 866152,
      "componentType": 5126,
      "count": 4979,
      "max": [
        0.9741413593292236,
        0.9849498271942139
      ],
      "min": [
        0.04666263237595558,
        0.06622453033924103
      ],
      "type": "VEC2"
    },
    {
      "bufferView": 0,
      "byteOffset": 2318976,
      "componentType": 5125,
      "count": 23808,
      "type": "SCALAR"
    },
    {
      "bufferView": 2,
      "byteOffset": 2717952,
      "componentType": 5126,
      "count": 3357,
      "max": [
        -1.3771213293075562,
        1.3076893091201782,
        0.9522854089736938
      ],
      "min": [
        -3.7468020915985107,
        -1.1738311052322388,
        -0.943342924118042
      ],
      "type": "VEC3"
    },
    {
      "bufferView": 2,
      "byteOffset": 2758236,
      "componentType": 5126,
      "count": 3357,
      "max": [
        0.9994961023330688,
        0.9976398944854736,
        0.998722493648529
      ],
      "min": [
        -0.9978718161582947,
        -0.9996191263198853,
        -0.9988082647323608
      ],
      "type": "VEC3"
    },
    {
      "bufferView": 1,
      "byteOffset": 905984,
      "componentType": 5126,
      "count": 3357,
      "max": [
        0.9748764634132385,
        0.9661338925361633
      ],
      "min": [
        0.021069739013910294,
        0.024958083406090736
      ],
      "type": "VEC2"
    },
    {
      "bufferView": 0,
      "byteOffset": 2414208,
      "componentType": 5125,
      "count": 16272,
      "type": "SCALAR"
    },
    {
      "bufferView": 2,
      "byteOffset": 2798520,
      "componentType": 5126,
      "count": 14930,
      "max": [
        -3.4019534587860107,
        0.3253627121448517,
        9.356036186218262
      ],
      "min": [
        -6.433150291442871,
        -2.5621728897094727,
        0.03432689979672432
      ],
      "type": "VEC3"
    },
    {
      "bufferView": 2,
      "byteOffset": 2977680,
      "componentType": 5126,
      "count": 14930,
      "max": [
        0.9884935617446899,
        0.9999977350234985,
        0.9997838735580444
      ],
      "min": [
        -0.99909508228302,
        -0.9999977350234985,
        -0.9999269247055054
      ],
      "type": "VEC3"
    },
    {
      "bufferView": 1,
      "byteOffset": 932840,
      "componentType": 5126,
      "count": 14930,
      "max": [
        0.9808570146560669,
        0.9792232513427734
      ],
      "min": [
        0.021989721804857254,
        0.023890120908617973
      ],
      "type": "VEC2"
    },
    {
      "bufferView": 0,
      "byteOffset": 2479296,
      "componentType": 5125,
      "count": 77184,
      "type": "SCALAR"
    },
    {
      "bufferView": 2,
      "byteOffset": 3156840,
      "componentType": 5126,
      "count": 472,
      "max": [
        0.8958334922790527,
        0.8958334922790527,
        0.0
      ],
      "min": [
        -0.8958334922790527,
        -0.8958334922790527,
        -0.2158382385969162
      ],
      "type": "VEC3"
    },
    {
      "bufferView": 2,
      "byteOffset": 3162504,
      "componentType": 5126,
      "count": 472,
      "max": [
        1.0,
        1.0,
        1.0
      ],
      "min": [
        -1.0,
        -1.0,
        -1.0
      ],
      "type": "VEC3"
    },
    {
      "bufferView": 1,
      "byteOffset": 1052280,
      "componentType": 5126,
      "count": 472,
      "max": [
        1.000000238418579,
        1.000000238418579
      ],
      "min": [
        0.0,
        0.0
      ],
      "type": "VEC2"
    },
    {
      "bufferView": 0,
      "byteOffset": 2788032,
      "componentType": 5125,
      "count": 2304,
      "type": "SCALAR"
    }
  ],
  "asset": {
    "extras": {
      "author": "IgorSan (https://sketchfab.com/IgorSan)",
      "license": "CC-BY-4.0 (http://creativecommons.org/licenses/by/4.0/)",
      "source": "https://sketchfab.com/3d-models/skater-tokay-gecko-f7a10c054bf743b2a408a395944d69e7",
      "title": "Skater Tokay Gecko"
    },
    "generator": "Sketchfab-10.85.0",
    "version": "2.0"
  },
  "bufferViews": [
    {
      "buffer": 0,
      "byteLength": 2797248,
      "name": "floatBufferViews",
      "target": 34963
    },
    {
      "buffer": 0,
      "byteLength": 1056056,
      "byteOffset": 2797248,
      "byteStride": 8,
      "name": "floatBufferViews",
      "target": 34962
    },
    {
      "buffer": 0,
      "byteLength": 3168168,
      "byteOffset": 3853304,
      "byteStride": 12,
      "name": "floatBufferViews",
      "target": 34962
    }
  ],
  "buffers": [
    {
      "byteLength": 7021472,
      "uri": "scene.bin"
    }
  ],
  "images": [
    {
      "uri": "textures/Material_baseColor.jpeg"
    },
    {
      "uri": "textures/Material.001_baseColor.jpeg"
    },
    {
      "uri": "textures/Material.003_baseColor.jpeg"
    },
    {
      "uri": "textures/Material.004_baseColor.jpeg"
    }
  ],
  "materials": [
    {
      "doubleSided": true,
      "name": "Material",
      "pbrMetallicRoughness": {
        "baseColorTexture": {
          "index": 0
        },
        "metallicFactor": 0.0
      }
    },
    {
      "doubleSided": true,
      "name": "Material.001",
      "pbrMetallicRoughness": {
        "baseColorTexture": {
          "index": 1
        },
        "metallicFactor": 0.0,
        "roughnessFactor": 0.7470177871865296
      }
    },
    {
      "doubleSided": true,
      "name": "Material.003",
      "pbrMetallicRoughness": {
        "baseColorTexture": {
          "index": 2
        },
        "metallicFactor": 0.0
      }
    },
    {
      "doubleSided": true,
      "name": "Material.004",
      "pbrMetallicRoughness": {
        "baseColorTexture": {
          "index": 3
        },
        "metallicFactor": 0.0,
        "roughnessFactor": 0.7789282774900823
      }
    },
    {
      "doubleSided": true,
      "name": "Material.007",
      "pbrMetallicRoughness": {
        "baseColorFactor": [
          0.0,
          0.0,
          0.0,
          1.0
        ],
        "metallicFactor": 0.0,
        "roughnessFactor": 0.16507873188228367
      }
    }
  ],
  "meshes": [
    {
      "name": "Gecko_Material_0",
      "primitives": [
        {
          "attributes": {
            "NORMAL": 1,
            "POSITION": 0,
            "TEXCOORD_0": 2
          },
          "indices": 3,
          "material": 0,
          "mode": 4
        }
      ]
    },
    {
      "name": "Gecko_Material_0",
      "primitives": [
        {
          "attributes": {
            "NORMAL": 5,
            "POSITION": 4,
            "TEXCOORD_0": 6
          },
          "indices": 7,
          "material": 0,
          "mode": 4
        }
      ]
    },
    {
      "name": "Eyes_Material.001_0",
      "primitives": [
        {
          "attributes": {
            "NORMAL": 9,
            "POSITION": 8,
            "TEXCOORD_0": 10
          },
          "indices": 11,
          "material": 1,
          "mode": 4
        }
      ]
    },
    {
      "name": "Hat_Material.003_0",
      "primitives": [
        {
          "attributes": {
            "NORMAL": 13,
            "POSITION": 12,
            "TEXCOORD_0": 14
          },
          "indices": 15,
          "material": 2,
          "mode": 4
        }
      ]
    },
    {
      "name": "Skate_Material.004_0",
      "primitives": [
        {
          "attributes": {
            "NORMAL": 17,
            "POSITION": 16,
            "TEXCOORD_0": 18
          },
          "indices": 19,
          "material": 3,
          "mode": 4
        }
      ]
    },
    {
      "name": "Base_Material.007_0",
      "primitives": [
        {
          "attributes": {
            "NORMAL": 21,
            "POSITION": 20,
            "TEXCOORD_0": 22
          },
          "indices": 23,
          "material": 4,
          "mode": 4
        }
      ]
    }
  ],
  "nodes": [
    {
      "children": [
        1
      ],
      "matrix": [
        1.0,
        0.0,
        0.0,
        0.0,
        0.0,
        2.220446049250313e-16,
        -1.0,
        0.0,
        0.0,
        1.0,
        2.220446049250313e-16,
        0.0,
        0.0,
        1.3254168152343482e-05,
        2.131690052920024e-06,
        1.0
      ],
      "name": "Sketchfab_model"
    },
    {
      "children": [
        2
      ],
      "matrix": [
        1.0,
        0.0,
        0.0,
        0.0,
        0.0,
        0.0,
        1.0,
        0.0,
        0.0,
        -1.0,
        0.0,
        0.0,
        0.0,
        0.0,
        0.0,
        1.0
      ],
      "name": "Skater Tokay Gecko.fbx"
    },
    {
      "children": [
        3,
        6,
        8,
        10,
        12
      ],
      "name": "RootNode"
    },
    {
      "children": [
        4,
        5
      ],
      "matrix": [
        100.0,
        0.0,
        0.0,
        0.0,
        0.0,
        -1.629206793918314e-05,
        -99.99999999999868,
        0.0,
        0.0,
        99.99999999999868,
        -1.629206793918314e-05,
        0.0,
        0.0,
        -2.8187849521636963,
        0.0,
        1.0
      ],
      "name": "Gecko"
    },
    {
      "mesh": 0,
      "name": "Gecko_Material_0"
    },
    {
      "mesh": 1,
      "name": "Gecko_Material_0"
    },
    {
      "children": [
        7
      ],
      "matrix": [
        100.0,
        0.0,
        0.0,
        0.0,
        0.0,
        -1.629206793918314e-05,
        -99.99999999999868,
        0.0,
        0.0,
        99.99999999999868,
        -1.629206793918314e-05,
        0.0,
        0.0,
        1313.431884765625,
        0.0,
        1.0
      ],
      "name": "Eyes"
    },
    {
      "mesh": 2,
      "name": "Eyes_Material.001_0"
    },
    {
      "children": [
        9
      ],
      "matrix": [
        82.74015808105469,
        0.0,
        0.0,
        0.0,
        0.0,
        -1.348008276755296e-05,
        -82.7401580810536,
        0.0,
        0.0,
        82.7401580810536,
        -1.348008276755296e-05,
        0.0,
        0.0,
        1413.9815673828125,
        0.0,
        1.0
      ],
      "name": "Hat"
    },
    {
      "mesh": 3,
      "name": "Hat_Material.003_0"
    },
    {
      "children": [
        11
      ],
      "matrix": [
        100.0,
        0.0,
        0.0,
        0.0,
        0.0,
        -1.629206793918314e-05,
        -99.99999999999868,
        0.0,
        0.0,
        99.99999999999868,
        -1.629206793918314e-05,
        0.0,
        0.0,
        -6.351912021636963,
        0.0,
        1.0
      ],
      "name": "Skate"
    },
    {
      "mesh": 4,
      "name": "Skate_Material.004_0"
    },
    {
      "children": [
        13
      ],
      "matrix": [
        668.95068359375,
        0.0,
        0.0,
        0.0,
        -0.0,
        -0.0001089858998507238,
        -668.9506835937411,
        0.0,
        0.0,
        668.9506835937411,
        -0.0001089858998507238,
        0.0,
        -112.95437622070313,
        0.0,
        0.0,
        1.0
      ],
      "name": "Base"
    },
    {
      "mesh": 5,
      "name": "Base_Material.007_0"
    }
  ],
  "samplers": [
    {
      "magFilter": 9729,
      "minFilter": 9987,
      "wrapS": 10497,
      "wrapT": 10497
    }
  ],
  "scene": 0,
  "scenes": [
    {
      "name": "Sketchfab_Scene",
      "nodes": [
        0
      ]
    }
  ],
  "textures": [
    {
      "sampler": 0,
      "source": 0
    },
    {
      "sampler": 0,
      "source": 1
    },
    {
      "sampler": 0,
      "source": 2
    },
    {
      "sampler": 0,
      "source": 3
    }
  ]
}
